<svg width="10" height="10" viewBox="0 0 10 10" fill="none" xmlns="http://www.w3.org/2000/svg">
<path d="M5.00002 6.4L2.08317 9.325C1.89877 9.50833 1.66408 9.6 1.3791 9.6C1.09412 9.6 0.859424 9.50833 0.675024 9.325C0.491691 9.14167 0.400024 8.90833 0.400024 8.625C0.400024 8.34167 0.491691 8.10833 0.675024 7.925L3.60002 5L0.675024 2.1082C0.491691 1.92378 0.400024 1.68908 0.400024 1.4041C0.400024 1.1191 0.491691 0.884399 0.675024 0.699999C0.858358 0.516666 1.09169 0.424999 1.37502 0.424999C1.65836 0.424999 1.89169 0.516666 2.07502 0.699999L5.00002 3.625L7.89182 0.699999C8.07624 0.516666 8.31094 0.424999 8.59592 0.424999C8.88092 0.424999 9.11562 0.516666 9.30002 0.699999C9.50002 0.899999 9.60002 1.1375 9.60002 1.4125C9.60002 1.6875 9.50002 1.91667 9.30002 2.1L6.37502 5L9.30002 7.91685C9.48336 8.10125 9.57502 8.33594 9.57502 8.62092C9.57502 8.90591 9.48336 9.1406 9.30002 9.325C9.10002 9.525 8.86252 9.625 8.58752 9.625C8.31252 9.625 8.08336 9.525 7.90002 9.325L5.00002 6.4Z" fill="white"/>
</svg>
