<svg width="130" height="28" viewBox="0 0 130 28" fill="none" xmlns="http://www.w3.org/2000/svg">
<path d="M12.9834 17.5879C18.8721 17.5879 22.5928 19.4629 22.6221 22.7148C22.5928 25.9082 18.8721 27.8418 12.9834 27.8125C7.12402 27.8418 3.34473 25.9082 3.34473 22.7148C3.34473 19.4629 7.12402 17.5879 12.9834 17.5879ZM12.9834 20.7227C9.46777 20.6934 7.53418 21.3672 7.56348 22.7148C7.53418 24.0332 9.46777 24.6191 12.9834 24.6484C16.4697 24.6191 18.4326 24.0332 18.4326 22.7148C18.4326 21.3672 16.4697 20.6934 12.9834 20.7227ZM22.5049 2.08984V4.25781C22.5049 6.36719 22.5049 8.71094 21.7432 11.4648L17.583 11.084C18.1543 8.79883 18.2568 7.08496 18.2861 5.37109H3.66699V2.08984H22.5049ZM25.3467 12.7539V16.1523H0.97168V12.7539H9.79004V8.18359H13.9502V12.7539H25.3467ZM38.9111 17.5879C44.7998 17.5879 48.5205 19.4629 48.5498 22.7148C48.5205 25.9082 44.7998 27.8418 38.9111 27.8125C33.0518 27.8418 29.2725 25.9082 29.2725 22.7148C29.2725 19.4629 33.0518 17.5879 38.9111 17.5879ZM38.9111 20.7227C35.3955 20.6934 33.4619 21.3672 33.4912 22.7148C33.4619 24.0332 35.3955 24.6191 38.9111 24.6484C42.3975 24.6191 44.3604 24.0332 44.3604 22.7148C44.3604 21.3672 42.3975 20.6934 38.9111 20.7227ZM48.4326 2.08984V4.25781C48.4326 6.36719 48.4326 8.71094 47.6709 11.4648L43.5107 11.084C44.082 8.79883 44.1846 7.08496 44.2139 5.37109H29.5947V2.08984H48.4326ZM51.2744 12.7539V16.1523H26.8994V12.7539H35.7178V8.18359H39.8779V12.7539H51.2744ZM61.2939 9.0625C61.2939 13.0762 62.5244 17.0605 66.3916 19.1406L64.1064 22.2168C61.7773 21.0303 60.2686 19.0527 59.3604 16.6504C58.4229 19.2871 56.8848 21.5137 54.5264 22.8613L52.124 19.6973C56.0791 17.4121 57.3096 13.1348 57.3096 9.0625V8.71094H53.2373V5.3418H57.3096V1.82617H61.2646V5.3418H65.249V8.71094H61.2939V9.0625ZM76.0596 0.917969V27.8125H72.0752V0.917969H76.0596ZM70.5225 1.29883V26.6113H66.5967V14.3945H63.7842V10.9961H66.5967V1.29883H70.5225ZM101.431 0.917969V17.1777H97.2412V12.1387H94.1064V8.71094H97.2412V0.917969H101.431ZM101.431 18.2031V27.5195H83.208V18.2031H101.431ZM87.4561 21.5137V24.1504H97.3291V21.5137H87.4561ZM94.6338 3.11523V6.45508H78.7549V3.11523H84.6143V0.712891H88.7744V3.11523H94.6338ZM86.6943 7.1875C90.5322 7.1875 93.2275 9.20898 93.2275 12.0215C93.2275 14.9512 90.5029 16.8848 86.6943 16.9141C82.915 16.8848 80.1611 14.9512 80.1611 12.0215C80.1611 9.20898 82.915 7.1875 86.6943 7.1875ZM86.6943 10.3516C85.1416 10.3223 84.2041 10.8789 84.2334 12.0215C84.2041 13.2227 85.1416 13.8086 86.6943 13.8086C88.2178 13.8086 89.1846 13.2227 89.1846 12.0215C89.1846 10.8789 88.2178 10.3223 86.6943 10.3516ZM126.011 0.947266V8.06641H129.526V11.5234H126.011V20.3711H121.792V0.947266H126.011ZM117.72 3.02734V6.36719H109.78V12.666C114.468 12.6221 117.017 12.4463 119.829 11.8457L120.269 15.2148C117.017 15.8887 113.94 16.0352 107.876 16.0352H105.562V3.02734H117.72ZM126.89 24.0039V27.373H108.374V18.2324H112.593V24.0039H126.89Z" fill="url(#paint0_linear_117_593)"/>
<defs>
<linearGradient id="paint0_linear_117_593" x1="0" y1="14" x2="130" y2="14" gradientUnits="userSpaceOnUse">
<stop stop-color="#169DDE"/>
<stop offset="1" stop-color="#1482B7"/>
</linearGradient>
</defs>
</svg>
