<svg width="18" height="18" viewBox="0 0 18 18" fill="none" xmlns="http://www.w3.org/2000/svg">
<g clip-path="url(#clip0_28_59)">
<path d="M17.6357 15.9833L14.5975 12.9451C15.6066 11.5934 16.205 9.91767 16.205 8.10093C16.2034 3.62728 12.5761 0 8.10248 0C3.62883 0 0 3.62728 0 8.10248C0 12.5777 3.62728 16.205 8.10248 16.205C9.90837 16.205 11.5763 15.6128 12.9249 14.613L15.9662 17.6543C16.1972 17.8853 16.4995 18 16.8018 18C17.104 18 17.4063 17.8853 17.6373 17.6543C18.0992 17.1924 18.0992 16.4452 17.6373 15.9833H17.6357ZM8.10248 14.0999C4.78987 14.0999 2.10506 11.4151 2.10506 8.10248C2.10506 4.78987 4.78987 2.10351 8.10248 2.10351C11.4151 2.10351 14.0999 4.78832 14.0999 8.10093C14.0999 11.4135 11.4151 14.0983 8.10248 14.0983V14.0999Z" fill="#111111"/>
</g>
<defs>
<clipPath id="clip0_28_59">
<rect width="17.9814" height="18" fill="white"/>
</clipPath>
</defs>
</svg>
