<svg width="24" height="24" viewBox="0 0 24 24" fill="none" xmlns="http://www.w3.org/2000/svg">
<g clip-path="url(#clip0_85_201)">
<path d="M12 24C18.6274 24 24 18.6274 24 12C24 5.37258 18.6274 0 12 0C5.37258 0 0 5.37258 0 12C0 18.6274 5.37258 24 12 24Z" fill="#2CB24A"/>
<path d="M13.4051 9.30264C13.4051 9.30264 12.1284 9.30264 10.9763 10.4314V5.90076H8.11932V17.8034H11.0074V16.8693C11.0074 16.8693 11.6847 18.0993 13.4051 18.0993C13.4051 18.0993 17.4297 17.9514 17.4297 13.6542C17.4297 13.6542 17.2818 9.30264 13.4051 9.30264ZM12.7745 15.5848C11.7625 15.5848 10.9374 14.7597 10.9374 13.7477C10.9374 12.7357 11.7625 11.9105 12.7745 11.9105C13.7865 11.9105 14.6117 12.7279 14.6117 13.7477C14.6117 14.7674 13.7865 15.5848 12.7745 15.5848Z" fill="white"/>
</g>
<defs>
<clipPath id="clip0_85_201">
<rect width="24" height="24" fill="white"/>
</clipPath>
</defs>
</svg>
