<svg width="24" height="24" viewBox="0 0 24 24" fill="none" xmlns="http://www.w3.org/2000/svg">
<g clip-path="url(#clip0_435_42)">
<path d="M18.0296 8.39803H6.03241C5.71423 8.39803 5.40907 8.52443 5.18408 8.74942C4.95909 8.97441 4.83269 9.27957 4.83269 9.59775C4.83269 9.91594 4.95909 10.2211 5.18408 10.4461C5.40907 10.6711 5.71423 10.7975 6.03241 10.7975H18.0296C18.3478 10.7975 18.6529 10.6711 18.8779 10.4461C19.1029 10.2211 19.2293 9.91594 19.2293 9.59775C19.2293 9.27957 19.1029 8.97441 18.8779 8.74942C18.6529 8.52443 18.3478 8.39803 18.0296 8.39803ZM13.2307 13.1969H6.03241C5.71423 13.1969 5.40907 13.3233 5.18408 13.5483C4.95909 13.7733 4.83269 14.0784 4.83269 14.3966C4.83269 14.7148 4.95909 15.02 5.18408 15.245C5.40907 15.4699 5.71423 15.5963 6.03241 15.5963H13.2307C13.5489 15.5963 13.8541 15.4699 14.0791 15.245C14.304 15.02 14.4304 14.7148 14.4304 14.3966C14.4304 14.0784 14.304 13.7733 14.0791 13.5483C13.8541 13.3233 13.5489 13.1969 13.2307 13.1969ZM12.031 0C10.4555 0 8.89545 0.310317 7.43988 0.913232C5.98431 1.51615 4.66175 2.39985 3.54771 3.5139C1.2978 5.76381 0.0338157 8.81534 0.0338157 11.9972C0.0233276 14.7675 0.982544 17.4542 2.74518 19.5914L0.345743 21.9909C0.179272 22.1596 0.0665034 22.3738 0.021665 22.6065C-0.0231735 22.8393 0.00192782 23.0801 0.0938016 23.2985C0.193448 23.5144 0.354985 23.6958 0.557909 23.8197C0.760833 23.9436 0.995991 24.0044 1.23353 23.9944H12.031C15.2129 23.9944 18.2644 22.7304 20.5143 20.4805C22.7642 18.2306 24.0282 15.179 24.0282 11.9972C24.0282 8.81534 22.7642 5.76381 20.5143 3.5139C18.2644 1.26399 15.2129 0 12.031 0V0ZM12.031 21.5949H4.12486L5.2406 20.4792C5.46405 20.2544 5.58947 19.9504 5.58947 19.6334C5.58947 19.3165 5.46405 19.0124 5.2406 18.7876C3.66967 17.2184 2.6914 15.1531 2.47247 12.9435C2.25355 10.7339 2.8075 8.51681 4.03995 6.66986C5.2724 4.82292 7.10711 3.46042 9.23148 2.81451C11.3559 2.1686 13.6385 2.27923 15.6904 3.12756C17.7424 3.9759 19.4367 5.50944 20.4848 7.46692C21.5328 9.4244 21.8697 11.6847 21.4382 13.8628C21.0066 16.0408 19.8331 18.0018 18.1178 19.4117C16.4025 20.8216 14.2514 21.5932 12.031 21.5949V21.5949Z" fill="#888888"/>
</g>
<defs>
<clipPath id="clip0_435_42">
<rect width="24" height="24" fill="white"/>
</clipPath>
</defs>
</svg>
