<svg width="26" height="24" viewBox="0 0 26 24" fill="none" xmlns="http://www.w3.org/2000/svg">
<path d="M18.5002 0.914246L18.5071 0.767761C20.3416 0.847568 22.07 1.65016 23.3147 3.00018C24.558 4.34884 25.2173 6.13405 25.1497 7.96698C25.1497 9.69958 24.451 11.4873 23.4094 13.1906C22.3669 14.8955 20.9737 16.5282 19.5706 17.9553C16.7651 20.8084 13.9027 22.8535 13.6653 23.0217L13.0872 23.4308L13.0002 23.4924L12.9133 23.4308L12.3352 23.0217C12.0998 22.8539 9.23629 20.8081 6.42993 17.9543C5.02678 16.5274 3.63356 14.8944 2.59106 13.1896C1.55082 11.4885 0.851376 9.70351 0.849854 7.97284L0.845947 7.62909C0.866018 5.91586 1.51899 4.26581 2.68579 3.00018C3.93051 1.65014 5.65886 0.847547 7.49341 0.767761L7.5022 0.766785C8.65461 0.78471 9.78244 1.10644 10.7708 1.6994C11.6859 2.24847 12.4487 3.01435 13.0002 3.92499C13.5518 3.01437 14.3146 2.24846 15.2297 1.6994C16.218 1.10646 17.3459 0.784709 18.4983 0.766785L18.5002 0.914246ZM3.15063 7.96698C3.15063 9.05094 3.55945 10.238 4.23657 11.4543C4.91283 12.669 5.85047 13.9022 6.89282 15.0754C8.939 17.3784 11.3781 19.4362 13.0002 20.6564C14.6224 19.4362 17.0615 17.379 19.1077 15.0764C20.15 13.9033 21.0877 12.6701 21.7639 11.4553C22.441 10.2389 22.8499 9.05145 22.8499 7.96698V7.95917H22.8508C22.9171 6.73342 22.4956 5.53091 21.679 4.61444C20.8643 3.7003 19.722 3.14372 18.5002 3.06659C17.2785 3.1437 16.1362 3.7003 15.3215 4.61444C14.5049 5.53091 14.0834 6.73342 14.1497 7.95917L14.1584 8.11737H11.842L11.8508 7.95917C11.9171 6.73342 11.4956 5.53091 10.679 4.61444C9.86434 3.7003 8.72201 3.14372 7.50024 3.06659C6.27847 3.1437 5.13617 3.7003 4.32153 4.61444C3.50488 5.53091 3.08344 6.73342 3.14966 7.95917L3.15063 7.96698Z" fill="#888888" stroke="#888888" stroke-width="0.3"/>
</svg>
