<svg width="40" height="40" viewBox="0 0 40 40" fill="none" xmlns="http://www.w3.org/2000/svg">
<rect width="40" height="40" rx="20" fill="#F3F3F3"/>
<path d="M24.3283 20.8283C25.4721 19.9284 26.307 18.6944 26.7168 17.2979C27.1266 15.9014 27.0909 14.412 26.6147 13.0367C26.1386 11.6614 25.2456 10.4688 24.0601 9.62465C22.8745 8.78052 21.4554 8.3269 20 8.3269C18.5446 8.3269 17.1255 8.78052 15.9399 9.62465C14.7544 10.4688 13.8614 11.6614 13.3852 13.0367C12.9091 14.412 12.8734 15.9014 13.2832 17.2979C13.693 18.6944 14.5279 19.9284 15.6717 20.8283C13.7118 21.6135 12.0017 22.9159 10.7237 24.5966C9.44574 26.2772 8.64782 28.2732 8.415 30.3716C8.39814 30.5249 8.41163 30.6799 8.45469 30.8279C8.49775 30.9759 8.56954 31.1139 8.66596 31.2342C8.86068 31.4771 9.14391 31.6326 9.45333 31.6667C9.76275 31.7007 10.073 31.6104 10.3159 31.4157C10.5587 31.221 10.7143 30.9377 10.7483 30.6283C11.0045 28.3477 12.092 26.2414 13.8029 24.7119C15.5139 23.1824 17.7284 22.3369 20.0233 22.3369C22.3183 22.3369 24.5328 23.1824 26.2437 24.7119C27.9547 26.2414 29.0421 28.3477 29.2983 30.6283C29.3301 30.915 29.4668 31.1797 29.6823 31.3715C29.8977 31.5633 30.1766 31.6684 30.465 31.6667H30.5933C30.8992 31.6315 31.1787 31.4768 31.371 31.2364C31.5633 30.9961 31.6528 30.6894 31.62 30.3833C31.3861 28.2789 30.5839 26.2778 29.2993 24.5946C28.0148 22.9113 26.2964 21.6094 24.3283 20.8283V20.8283ZM20 20C19.077 20 18.1748 19.7263 17.4073 19.2135C16.6399 18.7007 16.0418 17.9719 15.6886 17.1192C15.3353 16.2665 15.2429 15.3281 15.423 14.4229C15.6031 13.5177 16.0475 12.6861 16.7002 12.0335C17.3528 11.3808 18.1843 10.9364 19.0896 10.7563C19.9948 10.5763 20.9331 10.6687 21.7859 11.0219C22.6386 11.3751 23.3674 11.9732 23.8802 12.7407C24.393 13.5081 24.6667 14.4103 24.6667 15.3333C24.6667 16.571 24.175 17.758 23.2998 18.6331C22.4247 19.5083 21.2377 20 20 20Z" fill="#B6B6B6"/>
</svg>
