<svg width="130" height="36" viewBox="0 0 130 36" fill="none" xmlns="http://www.w3.org/2000/svg">
<path d="M12.9834 21.5879C18.8721 21.5879 22.5928 23.4629 22.6221 26.7148C22.5928 29.9082 18.8721 31.8418 12.9834 31.8125C7.12402 31.8418 3.34473 29.9082 3.34473 26.7148C3.34473 23.4629 7.12402 21.5879 12.9834 21.5879ZM12.9834 24.7227C9.46777 24.6934 7.53418 25.3672 7.56348 26.7148C7.53418 28.0332 9.46777 28.6191 12.9834 28.6484C16.4697 28.6191 18.4326 28.0332 18.4326 26.7148C18.4326 25.3672 16.4697 24.6934 12.9834 24.7227ZM22.5049 6.08984V8.25781C22.5049 10.3672 22.5049 12.7109 21.7432 15.4648L17.583 15.084C18.1543 12.7988 18.2568 11.085 18.2861 9.37109H3.66699V6.08984H22.5049ZM25.3467 16.7539V20.1523H0.97168V16.7539H9.79004V12.1836H13.9502V16.7539H25.3467ZM38.9111 21.5879C44.7998 21.5879 48.5205 23.4629 48.5498 26.7148C48.5205 29.9082 44.7998 31.8418 38.9111 31.8125C33.0518 31.8418 29.2725 29.9082 29.2725 26.7148C29.2725 23.4629 33.0518 21.5879 38.9111 21.5879ZM38.9111 24.7227C35.3955 24.6934 33.4619 25.3672 33.4912 26.7148C33.4619 28.0332 35.3955 28.6191 38.9111 28.6484C42.3975 28.6191 44.3604 28.0332 44.3604 26.7148C44.3604 25.3672 42.3975 24.6934 38.9111 24.7227ZM48.4326 6.08984V8.25781C48.4326 10.3672 48.4326 12.7109 47.6709 15.4648L43.5107 15.084C44.082 12.7988 44.1846 11.085 44.2139 9.37109H29.5947V6.08984H48.4326ZM51.2744 16.7539V20.1523H26.8994V16.7539H35.7178V12.1836H39.8779V16.7539H51.2744ZM61.2939 13.0625C61.2939 17.0762 62.5244 21.0605 66.3916 23.1406L64.1064 26.2168C61.7773 25.0303 60.2686 23.0527 59.3604 20.6504C58.4229 23.2871 56.8848 25.5137 54.5264 26.8613L52.124 23.6973C56.0791 21.4121 57.3096 17.1348 57.3096 13.0625V12.7109H53.2373V9.3418H57.3096V5.82617H61.2646V9.3418H65.249V12.7109H61.2939V13.0625ZM76.0596 4.91797V31.8125H72.0752V4.91797H76.0596ZM70.5225 5.29883V30.6113H66.5967V18.3945H63.7842V14.9961H66.5967V5.29883H70.5225ZM101.431 4.91797V21.1777H97.2412V16.1387H94.1064V12.7109H97.2412V4.91797H101.431ZM101.431 22.2031V31.5195H83.208V22.2031H101.431ZM87.4561 25.5137V28.1504H97.3291V25.5137H87.4561ZM94.6338 7.11523V10.4551H78.7549V7.11523H84.6143V4.71289H88.7744V7.11523H94.6338ZM86.6943 11.1875C90.5322 11.1875 93.2275 13.209 93.2275 16.0215C93.2275 18.9512 90.5029 20.8848 86.6943 20.9141C82.915 20.8848 80.1611 18.9512 80.1611 16.0215C80.1611 13.209 82.915 11.1875 86.6943 11.1875ZM86.6943 14.3516C85.1416 14.3223 84.2041 14.8789 84.2334 16.0215C84.2041 17.2227 85.1416 17.8086 86.6943 17.8086C88.2178 17.8086 89.1846 17.2227 89.1846 16.0215C89.1846 14.8789 88.2178 14.3223 86.6943 14.3516ZM126.011 4.94727V12.0664H129.526V15.5234H126.011V24.3711H121.792V4.94727H126.011ZM117.72 7.02734V10.3672H109.78V16.666C114.468 16.6221 117.017 16.4463 119.829 15.8457L120.269 19.2148C117.017 19.8887 113.94 20.0352 107.876 20.0352H105.562V7.02734H117.72ZM126.89 28.0039V31.373H108.374V22.2324H112.593V28.0039H126.89Z" fill="#C6C6C6"/>
</svg>
