<svg width="40" height="40" viewBox="0 0 40 40" fill="none" xmlns="http://www.w3.org/2000/svg">
<g clip-path="url(#clip0_96_910)">
<path d="M34.1495 34.1533C41.9625 26.3403 41.9625 13.6729 34.1495 5.85987C26.3365 -1.95315 13.6691 -1.95315 5.85607 5.85987C-1.95695 13.6729 -1.95695 26.3403 5.85607 34.1533C13.6691 41.9663 26.3365 41.9663 34.1495 34.1533Z" fill="#2CB24A"/>
<path d="M22.5159 15.5775C22.5159 15.5775 20.459 15.5775 18.6028 17.4282V10H14V29.515H18.653V27.9834C18.653 27.9834 19.7567 30 22.5159 30C22.5159 30 29 29.7575 29 22.7122C29 22.7122 28.7617 15.5775 22.5159 15.5775ZM21.5 25.8775C19.8696 25.8775 18.5401 24.5246 18.5401 22.8653C18.5401 21.2061 19.8696 19.8532 21.5 19.8532C23.1304 19.8532 24.4599 21.1934 24.4599 22.8653C24.4599 24.5373 23.1304 25.8775 21.5 25.8775Z" fill="white"/>
</g>
<defs>
<clipPath id="clip0_96_910">
<rect width="40" height="40" fill="white"/>
</clipPath>
</defs>
</svg>
