<svg width="24" height="24" viewBox="0 0 24 24" fill="none" xmlns="http://www.w3.org/2000/svg">
<rect width="24" height="24" rx="12" fill="#FF0302"/>
<path d="M18.8605 9.20005C18.8605 9.20005 18.7238 8.23481 18.3027 7.81099C17.7695 7.25317 17.1734 7.25044 16.9 7.21763C14.9422 7.07544 12.0027 7.07544 12.0027 7.07544H11.9973C11.9973 7.07544 9.05781 7.07544 7.1 7.21763C6.82656 7.25044 6.23047 7.25317 5.69727 7.81099C5.27617 8.23481 5.14219 9.20005 5.14219 9.20005C5.14219 9.20005 5 10.3348 5 11.4668V12.5278C5 13.6598 5.13945 14.7946 5.13945 14.7946C5.13945 14.7946 5.27617 15.7598 5.69453 16.1836C6.22773 16.7415 6.92773 16.7223 7.23945 16.7825C8.36055 16.8891 12 16.9219 12 16.9219C12 16.9219 14.9422 16.9165 16.9 16.777C17.1734 16.7442 17.7695 16.7415 18.3027 16.1836C18.7238 15.7598 18.8605 14.7946 18.8605 14.7946C18.8605 14.7946 19 13.6625 19 12.5278V11.4668C19 10.3348 18.8605 9.20005 18.8605 9.20005ZM10.5535 13.8157V9.88091L14.3352 11.8551L10.5535 13.8157Z" fill="white"/>
</svg>
