<svg width="24" height="24" viewBox="0 0 24 24" fill="none" xmlns="http://www.w3.org/2000/svg">
<rect width="24" height="24" rx="12" fill="#12A0DD"/>
<g clip-path="url(#clip0_451_103)">
<path d="M6.72191 9.33437C6.55449 9.38221 6.40246 9.47293 6.28086 9.59756C6.15927 9.7222 6.07233 9.87642 6.02864 10.045C5.98494 10.2135 5.98602 10.3906 6.03176 10.5586C6.0775 10.7266 6.16631 10.8797 6.28941 11.0029L7.99541 12.7069V15.9999H11.2919L13.0094 17.7149C13.1016 17.8078 13.2112 17.8817 13.3321 17.9321C13.4529 17.9826 13.5825 18.0087 13.7134 18.0089C13.7995 18.0087 13.8851 17.9976 13.9684 17.9759C14.1369 17.9334 14.2912 17.8474 14.4159 17.7263C14.5405 17.6053 14.6311 17.4535 14.6784 17.2864L17.9954 6.01038L6.72191 9.33437ZM6.99991 10.2959L15.5139 7.78587L8.99641 14.2929V12.2929L6.99991 10.2959ZM13.7199 17.0079L11.7064 14.9999H9.70641L16.2229 8.48887L13.7199 17.0079Z" fill="white"/>
</g>
<defs>
<clipPath id="clip0_451_103">
<rect width="12" height="12" fill="white" transform="translate(6 6)"/>
</clipPath>
</defs>
</svg>
